<svg xmlns="http://www.w3.org/2000/svg" width="350" height="450" fill="none" viewBox="0 0 350 450"><g clip-path="url(#a)"><path fill="#fff" d="M350 0H0v450h350z"/><g fill="#a1c51a"><path d="m288.026 134.552 40.704-72.704h4.608l-40.576 72.704zm13.568-22.912-16.896-49.792h4.736l15.872 47.36zM231.679 61.848l-.768 13.056-.896-1.152q3.2-5.76 9.088-9.344 6.016-3.712 13.568-3.712 7.424 0 11.264 4.096 3.84 3.968 2.944 10.496L262.527 111h-4.224l4.224-34.816q.64-5.248-2.432-8.448-2.945-3.328-8.832-3.328-5.376 0-10.112 2.56a21.4 21.4 0 0 0-7.808 6.784q-3.072 4.352-3.712 9.856L226.303 111h-4.224l6.016-49.152zM167.804 61.848l-.768 13.056-.896-1.152q3.2-5.76 9.088-9.344 6.016-3.712 13.568-3.712 7.424 0 11.264 4.096 3.84 3.968 2.944 10.496L198.652 111h-4.224l4.224-34.816q.64-5.248-2.432-8.448-2.945-3.328-8.832-3.328-5.376 0-10.112 2.56a21.4 21.4 0 0 0-7.808 6.784q-3.072 4.352-3.712 9.856L162.428 111h-4.224l6.016-49.152zM109.814 112.152q-6.912 0-10.752-3.84-3.712-3.84-2.944-10.368l4.352-36.096h4.224l-4.352 35.328q-.511 4.608 2.304 7.808t8.704 3.456q4.992 0 9.728-2.432 4.864-2.56 8.064-6.912 3.328-4.48 3.968-9.984l3.328-27.264h4.352L134.646 111h-3.712l1.536-14.464.384 1.152q-1.664 3.968-5.376 7.296-3.584 3.2-8.32 5.248-4.608 1.92-9.344 1.92M80 30.616q-3.712-2.047-9.856-4.096-6.016-2.047-12.16-2.176-6.4 0-10.496 1.92-4.096 1.792-6.528 4.608-2.304 2.689-3.328 5.632-.896 2.816-.896 4.864-.128 4.736 2.688 8.192 2.816 3.328 7.424 5.888a172 172 0 0 0 9.728 4.992A96 96 0 0 1 67.2 65.944q5.12 3.072 8.32 7.68 3.328 4.608 3.2 11.648 0 4.096-1.664 8.832-1.536 4.608-4.992 8.704-3.456 3.968-9.088 6.528-5.505 2.56-13.44 2.56-6.784 0-12.416-1.664-5.505-1.792-9.6-4.352-4.096-2.56-6.656-4.992l2.432-3.456q2.56 2.56 6.656 4.992t9.216 3.968 10.624 1.536q8.192 0 13.568-3.328 5.376-3.456 8.064-8.704Q74.24 90.648 74.24 85.4q.128-5.887-2.944-9.856-2.944-3.968-7.68-6.656a91 91 0 0 0-9.984-5.12 132 132 0 0 1-7.808-3.84q-3.84-2.048-7.04-4.48-3.072-2.56-4.864-5.888-1.793-3.328-1.664-7.808.128-6.528 3.584-11.264 3.585-4.864 9.344-7.424 5.888-2.56 12.8-2.56 4.096.128 8.448 1.024a56.4 56.4 0 0 1 8.448 2.432q4.095 1.536 7.424 3.328z"/></g><path fill="#a1c51a" d="M140 379.5a42.5 42.5 0 0 0-26.236-39.265A42.5 42.5 0 0 0 97.5 337v42.5z"/><path fill="#232369" d="M97.5 337a42.5 42.5 0 0 0-39.265 26.236A42.5 42.5 0 0 0 55 379.5h42.5z"/><path fill="#a1c51a" d="M55 379.5A42.5 42.5 0 0 0 97.5 422v-42.5z"/><path fill="#232369" d="M97.5 422a42.5 42.5 0 0 0 39.265-26.236A42.5 42.5 0 0 0 140 379.5H97.5z"/><mask id="b" width="322" height="280" x="12" y="142" maskUnits="userSpaceOnUse" style="mask-type:alpha"><path fill="#232369" d="M334 362c-.167 5.667 0 15.094-7.5 24-8 9.5-17 7.667-21.5 9.5 0 12.5-15 26.5-29 26.5h-29v-13h29c7 0 13.9-4.7 15.5-13.5 2-11-2.5-16-15.5-16h-20V362c.007 0 22.002.412 35.5 2 13.5 1.588 13.5 17.5 13.5 17.5 3.785-.333 11.785-.6 13.5-7s2.381-11 2.5-12.5zM207.634 183.04c2.833-.333 10.3 1.3 19.5 10.5s10.666 19.833 10 24v129.5c0 6.039 2.9 8.422 6.5 10.5s9.5 3.866 12 4.5v17.5c-5.167.333-17.7-1.2-26.5-10s-10.5-16.96-10.5-22.5v-129.5h-134.5v19.5c0 7.539-3.34 15.329-11 23.5-7.5 8-21.208 10-24.5 10l-.134-18.5c3.5-.5 7.902-1.701 11.634-4.5 4-3 5.5-4.961 5.5-10.5v-19.5c-.167-5 1.5-16 9.5-24s16-10.333 19-10.5zM61.5 217H48c-9.665 0-17.5 7.835-17.5 17.5S38.335 252 48 252v18.5c-4.727 0-9.409-.944-13.776-2.778a36 36 0 0 1-11.68-7.912 36.6 36.6 0 0 1-7.804-11.842A36.95 36.95 0 0 1 12 234c0-4.793.931-9.539 2.74-13.968a36.6 36.6 0 0 1 7.804-11.842 36 36 0 0 1 11.68-7.912 35.6 35.6 0 0 1 13.276-2.772V142h14zm74-8h34v-12h-34z"/></mask><g mask="url(#b)"><path stroke="#232369" stroke-width="35" d="M45.5 141v64.5c-11-.167-24 5.9-24 31.5 0 32 60 33.376 60 1.876 0-25.2 2-36.376 9.5-38.376h116c7-.833 21 5.3 21 36.5v104c.459 5.5 1.801 20.9 11.5 26.5 12.124 7 41 2.5 51 4.5 6.5 2.5 9.5 11.5 9.5 18.5m0 0c-2.5 18.5-13 25.5-29 25.5h-29.5m58.5-25.5c8-2 22-3.5 24-11.5.75-3 4-15 4-18"/></g></g><defs><clipPath id="a"><path fill="#fff" d="M0 0h350v450H0z"/></clipPath></defs></svg>